0
SECTION
2
HEADER
9
$INSUNITS
70
4
9
$ACADVER
1
AC1014
9
$HANDSEED
5
FFFF
0
ENDSEC
0
SECTION
2
TABLES
0
TABLE
2
VPORT
5
8
100
AcDbSymbolTable
0
ENDTAB
0
TABLE
2
LTYPE
5
5
100
AcDbSymbolTable
0
LTYPE
5
14
100
AcDbSymbolTableRecord
100
AcDbLinetypeTableRecord
2
BYBLOCK
70
0
0
LTYPE
5
15
100
AcDbSymbolTableRecord
100
AcDbLinetypeTableRecord
2
BYLAYER
70
0
0
ENDTAB
0
TABLE
2
LAYER
5
2
100
AcDbSymbolTable
70
2
0
LAYER
5
50
100
AcDbSymbolTableRecord
100
AcDbLayerTableRecord
2
0
70
0
6
CONTINUOUS
0
ENDTAB
0
TABLE
2
STYLE
5
3
100
AcDbSymbolTable
70
1
0
STYLE
5
11
100
AcDbSymbolTableRecord
100
AcDbTextStyleTableRecord
2
STANDARD
70
0
0
ENDTAB
0
TABLE
2
VIEW
5
6
100
AcDbSymbolTable
70
0
0
ENDTAB
0
TABLE
2
UCS
5
7
100
AcDbSymbolTable
70
0
0
ENDTAB
0
TABLE
2
APPID
5
9
100
AcDbSymbolTable
70
2
0
APPID
5
12
100
AcDbSymbolTableRecord
100
AcDbRegAppTableRecord
2
ACAD
70
0
0
ENDTAB
0
TABLE
2
DIMSTYLE
5
A
100
AcDbSymbolTable
70
1
0
ENDTAB
0
TABLE
2
BLOCK_RECORD
5
1
100
AcDbSymbolTable
70
1
0
BLOCK_RECORD
5
1F
100
AcDbSymbolTableRecord
100
AcDbBlockTableRecord
2
*MODEL_SPACE
0
BLOCK_RECORD
5
1B
100
AcDbSymbolTableRecord
100
AcDbBlockTableRecord
2
*PAPER_SPACE
0
ENDTAB
0
ENDSEC
0
SECTION
2
BLOCKS
0
BLOCK
5
20
100
AcDbEntity
100
AcDbBlockBegin
2
*MODEL_SPACE
0
ENDBLK
5
21
100
AcDbEntity
100
AcDbBlockEnd
0
BLOCK
5
1C
100
AcDbEntity
100
AcDbBlockBegin
2
*PAPER_SPACE
0
ENDBLK
5
1D
100
AcDbEntity
100
AcDbBlockEnd
0
ENDSEC
0
SECTION
2
ENTITIES
0
CIRCLE
5
100
100
AcDbEntity
8
0
100
AcDbCircle
10
5
20
7.6862915010152433
30
0
40
1.6250000000000009
210
0
220
-0
230
1
0
CIRCLE
5
101
100
AcDbEntity
8
0
100
AcDbCircle
10
5
20
19
30
0
40
1.6250000000000009
210
0
220
-0
230
1
0
CIRCLE
5
102
100
AcDbEntity
8
0
100
AcDbCircle
10
16.313708498984763
20
7.6862915010152424
30
0
40
1.6250000000000009
210
0
220
-0
230
1
0
CIRCLE
5
103
100
AcDbEntity
8
0
100
AcDbCircle
10
16.313708498984763
20
19
30
0
40
1.6250000000000009
210
0
220
-0
230
1
0
LWPOLYLINE
5
104
100
AcDbEntity
8
0
100
AcDbPolyline
90
4
70
1
43
0.0
10
0
20
22.450000000000003
10
0
20
0
10
64
20
0
10
64
20
22.450000000000003
0
SPLINE
5
105
100
AcDbEntity
8
0
100
AcDbSpline
70
0
71
3
72
18
73
14
74
0
42
0.000000001
43
0.0000000001
44
0.0000000001
40
0
40
0
40
0
40
0
40
0.099769799584281574
40
0.099769799584281574
40
0.20361825338826281
40
0.20361825338826281
40
0.31154358793890025
40
0.31154358793890025
40
0.42354396697569474
40
0.42354396697569474
40
0.49442794879927077
40
0.49442794879927077
40
0.56684730604810718
40
0.56684730604810718
40
0.56684730604810718
40
0.56684730604810718
10
12.570320246157443
20
14.979132953882575
30
0
10
12.812666729933017
20
14.751386767886139
30
0
10
13.007254187054137
20
14.477667468929205
30
0
10
13.288724290249835
20
13.859390350574714
30
0
10
13.368115183507321
20
13.518647507820232
30
0
10
13.39494780822459
20
12.812011111272707
30
0
10
13.336893114389916
20
12.452763821384124
30
0
10
13.08396241875087
20
11.7626860109117
30
0
10
12.886615566849784
20
11.440347937520205
30
0
10
12.473901715942388
20
10.988903069882177
30
0
10
12.293292630912845
20
10.83398165827882
30
0
10
11.895067283562382
20
10.567120773667193
30
0
10
11.678204339455135
20
10.45716189858261
30
0
10
11.450653532025239
20
10.373922796761924
30
0
0
ARC
5
106
100
AcDbEntity
8
0
100
AcDbCircle
10
10.656854249492383
20
13.343145750507603
30
0
40
3.0734999999999824
210
0
220
0
230
1
100
AcDbArc
50
255.0324409838835
51
284.96755901611618
0
SPLINE
5
107
100
AcDbEntity
8
0
100
AcDbSpline
70
0
71
3
72
18
73
14
74
0
42
0.000000001
43
0.0000000001
44
0.0000000001
40
0
40
0
40
0
40
0
40
0.11758753420617642
40
0.11758753420617642
40
0.23108734020029353
40
0.23108734020029353
40
0.34049778650467699
40
0.34049778650467699
40
0.44581731803776398
40
0.44581731803776398
40
0.50829673118403196
40
0.50829673118403196
40
0.56924861039942842
40
0.56924861039942842
40
0.56924861039942842
40
0.56924861039942842
10
9.8630549669595204
20
10.373922796761924
30
0
10
9.4949519896330123
20
10.50857651017324
30
0
10
9.156187284447812
20
10.712651372810065
30
0
10
8.5878933683584275
20
11.231776238653579
30
0
10
8.3603445791321338
20
11.537913774550962
30
0
10
8.0436455406402985
20
12.208806837108694
30
0
10
7.9528283436621141
20
12.564812307864621
30
0
10
7.9160771915979513
20
13.277943636162735
30
0
10
7.9652662633759865
20
13.627880172536347
30
0
10
8.1501883962656319
20
14.153856040976414
30
0
10
8.2419561464546369
20
14.340876187521756
30
0
10
8.465702358914907
20
14.684482710887846
30
0
10
8.5958690550579941
20
14.840501131667526
30
0
10
8.7433882528273159
20
14.979132953882573
30
0
0
ARC
5
108
100
AcDbEntity
8
0
100
AcDbCircle
10
10.656854249492383
20
13.343145750507603
30
0
40
2.5175000000000143
210
0
220
-0
230
1
100
AcDbArc
50
40.529988897112126
51
139.47001110288801
0
CIRCLE
5
109
100
AcDbEntity
8
0
100
AcDbCircle
10
10.65685424949238
20
13.343145750507624
30
0
40
3.0000000000000004
210
-0
220
0
230
1
0
ENDSEC
0
SECTION
2
OBJECTS
0
DICTIONARY
5
C
100
AcDbDictionary
3
ACAD_GROUP
350
D
3
ACAD_MLINESTYLE
350
17
0
DICTIONARY
5
D
100
AcDbDictionary
0
DICTIONARY
5
1A
330
C
100
AcDbDictionary
0
DICTIONARY
5
17
100
AcDbDictionary
0
ENDSEC
0
EOF
